<?xml version="1.0" encoding="utf-8"?>
<svg xmlns="http://www.w3.org/2000/svg" xmlns:xlink="http://www.w3.org/1999/xlink" id="Group_3378" width="65.762" height="50.137" data-name="Group 3378" viewBox="0 0 65.762 50.137">
    <defs>
        <clipPath id="clip-path">
            <path id="Path_5200" fill="none" d="M579.051-62.121,547.683-62a2.1,2.1,0,0,0-1.489.621h0L531.17-46.361a2.119,2.119,0,0,0,0,2.993h0L561.937-12.6a2.107,2.107,0,0,0,1.5.618h0a2.112,2.112,0,0,0,1.5-.618h0l30.765-30.766a2.117,2.117,0,0,0,0-2.993h0L580.555-61.5a2.135,2.135,0,0,0-1.5-.62h0Zm-29.245,2.172,27.355-.1L563.432-46.323Zm15.085,15.084,14.692-14.692L594.237-44.9a.055.055,0,0,1,0,.076h0L579.583-30.173Zm-1.5,30.8L532.629-44.827a.061.061,0,0,1,0-.076h0l14.654-14.654,30.841,30.842L563.47-14.062a.05.05,0,0,1-.038.016h0a.053.053,0,0,1-.038-.016" data-name="Path 5200" transform="translate(-530.552 62.121)"/>
        </clipPath>
        <linearGradient id="linear-gradient" x1="0.62" x2="0.703" y1="0.889" y2="0.889" gradientUnits="objectBoundingBox">
            <stop offset="0" stop-color="#5f2b90"/>
            <stop offset="0.1" stop-color="#702b91"/>
            <stop offset="0.2" stop-color="#802b92"/>
            <stop offset="0.3" stop-color="#912b94"/>
            <stop offset="0.4" stop-color="#a12b95"/>
            <stop offset="0.5" stop-color="#b22b96"/>
            <stop offset="0.6" stop-color="#c12d95"/>
            <stop offset="0.7" stop-color="#d03091"/>
            <stop offset="0.8" stop-color="#df338c"/>
            <stop offset="0.9" stop-color="#ee3688"/>
            <stop offset="1" stop-color="#fd3a83"/>
        </linearGradient>
    </defs>
    <g id="Group_3367" clip-path="url(#clip-path)" data-name="Group 3367" transform="translate(0 0)">
        <g id="Group_3366" data-name="Group 3366" transform="translate(-489.482 -7.215)">
            <path id="Path_5199" fill="url(#linear-gradient)" d="M-530.551-62.165h790.11V2.362h-790.11Z" data-name="Path 5199" transform="translate(530.551 62.165)"/>
        </g>
    </g>
</svg>
