<?xml version="1.0" encoding="utf-8"?>
<svg xmlns="http://www.w3.org/2000/svg" xmlns:xlink="http://www.w3.org/1999/xlink" id="Group_3377" width="64.507" height="64.527" data-name="Group 3377" viewBox="0 0 64.507 64.527">
    <defs>
        <clipPath id="clip-path">
            <path id="Path_5192" fill="none" d="M298.582-69.942a3.371,3.371,0,0,0-2.4.995h0L266.27-39.035a3.372,3.372,0,0,0-.994,2.4h0a3.372,3.372,0,0,0,.994,2.4h0L294.094-6.411a3.364,3.364,0,0,0,2.389,1h0a3.416,3.416,0,0,0,.835-.1h0a3.368,3.368,0,0,0,2.425-2.3h0l6.309-20.73a1.291,1.291,0,0,1,.2-.382h0l.283-.282a1.278,1.278,0,0,1,.393-.2h0l20.425-6.07a3.364,3.364,0,0,0,2.324-2.419h0a3.368,3.368,0,0,0-.89-3.235h0l-27.8-27.8A3.373,3.373,0,0,0,298.582-69.942Zm6.627,23.316a1.045,1.045,0,0,0,0-1.479h0L291.752-61.561l5.909-5.908a1.3,1.3,0,0,1,.922-.382h0a1.3,1.3,0,0,1,.923.382h0l27.8,27.8a1.278,1.278,0,0,1,.342,1.243h0a1.277,1.277,0,0,1-.893.929h0l-20.425,6.07a3.414,3.414,0,0,0-.74.321h0L283.444-53.252l6.83-6.83,13.458,13.457a1.04,1.04,0,0,0,.739.306h0a1.038,1.038,0,0,0,.739-.306M295.572-7.889,267.748-35.713a1.306,1.306,0,0,1,0-1.844h0l14.218-14.217,22.23,22.23a3.216,3.216,0,0,0-.145.386h0L297.742-8.432a1.282,1.282,0,0,1-.932.887h0a1.35,1.35,0,0,1-.328.041h0a1.276,1.276,0,0,1-.91-.384" data-name="Path 5192" transform="translate(-265.276 69.942)"/>
        </clipPath>
        <linearGradient id="linear-gradient" x1="0.586" x2="0.677" y1="0.638" y2="0.638" gradientUnits="objectBoundingBox">
            <stop offset="0" stop-color="#5f2b90"/>
            <stop offset="0.1" stop-color="#702b91"/>
            <stop offset="0.2" stop-color="#802b92"/>
            <stop offset="0.3" stop-color="#912b94"/>
            <stop offset="0.4" stop-color="#a12b95"/>
            <stop offset="0.5" stop-color="#b22b96"/>
            <stop offset="0.6" stop-color="#c12d95"/>
            <stop offset="0.7" stop-color="#d03091"/>
            <stop offset="0.8" stop-color="#df338c"/>
            <stop offset="0.9" stop-color="#ee3688"/>
            <stop offset="1" stop-color="#fd3a83"/>
        </linearGradient>
    </defs>
    <g id="Group_3359" clip-path="url(#clip-path)" data-name="Group 3359" transform="translate(0 0)">
        <g id="Group_3358" data-name="Group 3358" transform="translate(577.303 27.662) rotate(130.9)">
            <path id="Path_5191" fill="url(#linear-gradient)" d="M517.317,639.456,0,42.249,48.773,0,566.091,597.208Z" data-name="Path 5191" transform="translate(0 0)"/>
        </g>
    </g>
</svg>
