<?xml version="1.0" encoding="utf-8"?>
<svg xmlns="http://www.w3.org/2000/svg" xmlns:xlink="http://www.w3.org/1999/xlink" id="Group_3379" width="55.888" height="50.097" data-name="Group 3379" viewBox="0 0 55.888 50.097">
    <defs>
        <clipPath id="clip-path">
            <path id="Path_5198" fill="none" d="M800.722-57.226a16.757,16.757,0,0,0-.005,23.667h0L820.66-13.306a4.255,4.255,0,0,0,3.045,1.281h.013a4.264,4.264,0,0,0,3.041-1.264h0L846.811-33.43a16.626,16.626,0,0,0,4.9-11.837h0a16.624,16.624,0,0,0-4.9-11.836h0a16.626,16.626,0,0,0-11.836-4.9h0A16.616,16.616,0,0,0,823.9-57.82h0l-.2-.195-.072.072a16.7,16.7,0,0,0-11.075-4.178h0a16.686,16.686,0,0,0-11.837,4.9M802.2-35.031a14.666,14.666,0,0,1,0-20.716h0a14.6,14.6,0,0,1,10.359-4.284h0a14.609,14.609,0,0,1,9.791,3.745h0a13.436,13.436,0,0,0-7.455,3.228h0a13.434,13.434,0,0,0-4.658,9.759h0a13.592,13.592,0,0,0,3.958,10.042h0l2.669,2.669a.1.1,0,0,1,0,.139h0l-5.114,5.113Zm28.5,4.668a.178.178,0,0,1,0-.254h0l2.64-2.64A13.59,13.59,0,0,0,837.3-43.3h0a13.427,13.427,0,0,0-4.658-9.759h0a13.435,13.435,0,0,0-7.327-3.214h0a14.538,14.538,0,0,1,9.662-3.642h0a14.548,14.548,0,0,1,10.358,4.29h0a14.554,14.554,0,0,1,4.291,10.358h0a14.56,14.56,0,0,1-4.292,10.361h0L835.766-25.3ZM822.15-14.772l-8.934-9.073,5.125-5.125a2.189,2.189,0,0,0,0-3.1h0l-2.669-2.67a11.49,11.49,0,0,1-3.346-8.491h0a11.361,11.361,0,0,1,3.942-8.255h0a11.465,11.465,0,0,1,15,0h0a11.365,11.365,0,0,1,3.942,8.255h0a11.49,11.49,0,0,1-3.346,8.491h0l-2.64,2.64a2.27,2.27,0,0,0,0,3.21h0l5.068,5.068-9.013,9.053a2.186,2.186,0,0,1-1.559.649h-.006a2.186,2.186,0,0,1-1.562-.657" data-name="Path 5198" transform="translate(-795.827 62.121)"/>
        </clipPath>
        <linearGradient id="linear-gradient" x1="-0.004" x2="0.078" y1="0.077" y2="0.077" gradientUnits="objectBoundingBox">
            <stop offset="0" stop-color="#5f2b90"/>
            <stop offset="0.1" stop-color="#702b91"/>
            <stop offset="0.2" stop-color="#802b92"/>
            <stop offset="0.3" stop-color="#912b94"/>
            <stop offset="0.4" stop-color="#a12b95"/>
            <stop offset="0.5" stop-color="#b22b96"/>
            <stop offset="0.6" stop-color="#c12d95"/>
            <stop offset="0.7" stop-color="#d03091"/>
            <stop offset="0.8" stop-color="#df338c"/>
            <stop offset="0.9" stop-color="#ee3688"/>
            <stop offset="1" stop-color="#fd3a83"/>
        </linearGradient>
    </defs>
    <g id="Group_3365" clip-path="url(#clip-path)" data-name="Group 3365" transform="translate(0 0)">
        <g id="Group_3364" data-name="Group 3364" transform="matrix(-0.838, 0.546, -0.546, -0.838, 85.408, 38.068)">
            <path id="Path_5197" fill="url(#linear-gradient)" d="M661.89,485.537,0,54.056,35.238,0l661.89,431.481Z" data-name="Path 5197" transform="translate(0 0)"/>
        </g>
    </g>
</svg>
