<?xml version="1.0" encoding="utf-8"?>
<svg xmlns="http://www.w3.org/2000/svg" xmlns:xlink="http://www.w3.org/1999/xlink" id="Group_3376" width="49.068" height="57.338" data-name="Group 3376" viewBox="0 0 49.068 57.338">
    <defs>
        <clipPath id="clip-path">
            <path id="Path_5194" fill="none" d="M7.178-58.836A24.47,24.47,0,0,0,0-41.6H0v.237A24.463,24.463,0,0,0,7.179-24.123h0L21.22-10.082a4.654,4.654,0,0,0,3.315,1.374h0a4.652,4.652,0,0,0,3.315-1.374h0L41.891-24.123a24.574,24.574,0,0,0,0-34.713h0a24.4,24.4,0,0,0-17.357-7.21h0a24.4,24.4,0,0,0-17.357,7.21M22.7-11.56,8.657-25.6a22.479,22.479,0,0,1,0-31.755h0a22.315,22.315,0,0,1,15.878-6.6h0a22.318,22.318,0,0,1,15.879,6.6h0a22.479,22.479,0,0,1,0,31.755h0L26.371-11.56a2.581,2.581,0,0,1-1.837.761h0A2.581,2.581,0,0,1,22.7-11.56" data-name="Path 5194" transform="translate(0 66.046)"/>
        </clipPath>
        <linearGradient id="linear-gradient" x2="0.062" y1="0.944" y2="0.944" gradientUnits="objectBoundingBox">
            <stop offset="0" stop-color="#5f2b90"/>
            <stop offset="0.1" stop-color="#702b91"/>
            <stop offset="0.2" stop-color="#802b92"/>
            <stop offset="0.3" stop-color="#912b94"/>
            <stop offset="0.4" stop-color="#a12b95"/>
            <stop offset="0.5" stop-color="#b22b96"/>
            <stop offset="0.6" stop-color="#c12d95"/>
            <stop offset="0.7" stop-color="#d03091"/>
            <stop offset="0.8" stop-color="#df338c"/>
            <stop offset="0.9" stop-color="#ee3688"/>
            <stop offset="1" stop-color="#fd3a83"/>
        </linearGradient>
        <clipPath id="clip-path-2">
            <path id="Path_5196" fill="none" d="M24.2-36.424v16.059a2.216,2.216,0,0,1-.506-.377h0L10.99-33.447a1.046,1.046,0,0,0-1.479,0h0a1.045,1.045,0,0,0,0,1.479h0L22.217-19.263a4.261,4.261,0,0,0,3.03,1.254h0a4.259,4.259,0,0,0,3.029-1.254h0L40.982-31.969a1.044,1.044,0,0,0,0-1.478h0a1.044,1.044,0,0,0-1.478,0h0L26.8-20.742a2.2,2.2,0,0,1-.506.377h0V-36.424a1.045,1.045,0,0,0-1.045-1.045h0A1.045,1.045,0,0,0,24.2-36.424" data-name="Path 5196" transform="translate(-9.205 37.469)"/>
        </clipPath>
        <linearGradient id="linear-gradient-2" x1="0.011" x2="0.051" y1="0.766" y2="0.766" xlink:href="#linear-gradient"/>
    </defs>
    <g id="Group_3361" clip-path="url(#clip-path)" data-name="Group 3361" transform="translate(0 0)">
        <g id="Group_3360" data-name="Group 3360" transform="translate(0 -3.594)">
            <path id="Path_5193" fill="url(#linear-gradient)" d="M0-66.045H790.11V-1.518H0Z" data-name="Path 5193" transform="translate(0 66.045)"/>
        </g>
    </g>
    <g id="Group_3363" clip-path="url(#clip-path-2)" data-name="Group 3363" transform="translate(8.492 26.365)">
        <g id="Group_3362" data-name="Group 3362" transform="translate(-8.492 -29.959)">
            <path id="Path_5195" fill="url(#linear-gradient-2)" d="M-9.206-53.566H780.9V10.961H-9.206Z" data-name="Path 5195" transform="translate(9.206 53.566)"/>
        </g>
    </g>
</svg>
