<?xml version="1.0" encoding="UTF-8"?>
<svg width="18px" height="19px" viewBox="0 0 18 19" version="1.1" xmlns="http://www.w3.org/2000/svg" xmlns:xlink="http://www.w3.org/1999/xlink">
    <!-- Generator: Sketch 55.2 (78181) - https://sketchapp.com -->
    <title>arrow-up</title>
    <desc>Created with Sketch.</desc>
    <g id="Page-1" stroke="none" stroke-width="1" fill="none" fill-rule="evenodd">
        <g id="Artboard" transform="translate(-765.000000, -331.000000)" fill="#000000" fill-rule="nonzero">
            <path d="M773.479503,331.846504 C773.525886,331.839911 773.573295,331.8365 773.6215,331.8365 C773.669203,331.8365 773.716125,331.83984 773.762047,331.846299 C774.190957,331.882191 774.591983,332.081998 774.881106,332.408737 L781.830106,340.302737 C782.195028,340.717286 782.154798,341.349171 781.74025,341.714093 C781.325702,342.079016 780.693816,342.038786 780.328894,341.624238 L774.6215,335.140686 L774.6215,348.0795 C774.6215,348.631785 774.173785,349.0795 773.6215,349.0795 C773.069215,349.0795 772.6215,348.631785 772.6215,348.0795 L772.6215,335.141623 L766.914059,341.624291 C766.549107,342.038813 765.917219,342.078998 765.502696,341.714046 C765.088174,341.349095 765.047989,340.717206 765.412941,340.302684 L772.364605,332.406799 C772.651636,332.082428 773.051532,331.882934 773.479503,331.846504 L773.479503,331.846504 Z" id="arrow-up"></path>
        </g>
    </g>
</svg>