<?xml version="1.0" encoding="UTF-8"?>
<svg width="18px" height="19px" viewBox="0 0 18 19" version="1.1" xmlns="http://www.w3.org/2000/svg" xmlns:xlink="http://www.w3.org/1999/xlink">
    <!-- Generator: Sketch 55.2 (78181) - https://sketchapp.com -->
    <title>arrow-down</title>
    <desc>Created with Sketch.</desc>
    <g id="Page-1" stroke="none" stroke-width="1" fill="none" fill-rule="evenodd">
        <g id="Artboard" transform="translate(-720.000000, -331.000000)" fill="#000000" fill-rule="nonzero">
            <path d="M728.763497,349.069496 C728.717114,349.076089 728.669705,349.0795 728.6215,349.0795 C728.573797,349.0795 728.526875,349.07616 728.480953,349.069701 C728.052043,349.033809 727.651017,348.834002 727.361894,348.507263 L720.412894,340.613263 C720.047972,340.198714 720.088202,339.566829 720.50275,339.201907 C720.917298,338.836984 721.549184,338.877214 721.914106,339.291762 L727.6215,345.775314 L727.6215,332.8365 C727.6215,332.284215 728.069215,331.8365 728.6215,331.8365 C729.173785,331.8365 729.6215,332.284215 729.6215,332.8365 L729.6215,345.774377 L735.328941,339.291709 C735.693893,338.877187 736.325781,338.837002 736.740304,339.201954 C737.154826,339.566905 737.195011,340.198794 736.830059,340.613316 L729.878395,348.509201 C729.591364,348.833572 729.191468,349.033066 728.763497,349.069496 L728.763497,349.069496 Z" id="arrow-down"></path>
        </g>
    </g>
</svg>