<?xml version="1.0" encoding="UTF-8"?>
<svg width="18px" height="17px" viewBox="0 0 18 17" version="1.1" xmlns="http://www.w3.org/2000/svg" xmlns:xlink="http://www.w3.org/1999/xlink">
    <!-- Generator: Sketch 55.2 (78181) - https://sketchapp.com -->
    <title>arrow-right</title>
    <desc>Created with Sketch.</desc>
    <g id="Page-1" stroke="none" stroke-width="1" fill="none" fill-rule="evenodd">
        <g id="Artboard" transform="translate(-698.000000, -332.000000)" fill="#000000" fill-rule="nonzero">
            <path d="M715.234996,340.316003 C715.241589,340.362386 715.245,340.409795 715.245,340.458 C715.245,340.505703 715.24166,340.552625 715.235201,340.598547 C715.199309,341.027457 714.999502,341.428483 714.672763,341.717606 L706.778763,348.666606 C706.364214,349.031528 705.732329,348.991298 705.367407,348.57675 C705.002484,348.162202 705.042714,347.530316 705.457262,347.165394 L711.940814,341.458 L699.002,341.458 C698.449715,341.458 698.002,341.010285 698.002,340.458 C698.002,339.905715 698.449715,339.458 699.002,339.458 L711.939877,339.458 L705.457209,333.750559 C705.042687,333.385607 705.002502,332.753719 705.367454,332.339196 C705.732405,331.924674 706.364294,331.884489 706.778816,332.249441 L714.674701,339.201105 C714.999072,339.488136 715.198566,339.888032 715.234996,340.316003 L715.234996,340.316003 Z" id="arrow-right"></path>
        </g>
    </g>
</svg>