<?xml version="1.0" encoding="UTF-8"?>
<svg width="18px" height="17px" viewBox="0 0 18 17" version="1.1" xmlns="http://www.w3.org/2000/svg" xmlns:xlink="http://www.w3.org/1999/xlink">
    <!-- Generator: Sketch 55.2 (78181) - https://sketchapp.com -->
    <title>arrow-left</title>
    <desc>Created with Sketch.</desc>
    <g id="Page-1" stroke="none" stroke-width="1" fill="none" fill-rule="evenodd">
        <g id="Artboard" transform="translate(-743.000000, -332.000000)" fill="#000000" fill-rule="nonzero">
            <path d="M743.010004,340.599997 C743.003411,340.553614 743,340.506205 743,340.458 C743,340.410297 743.00334,340.363375 743.009799,340.317453 C743.045691,339.888543 743.245498,339.487517 743.572237,339.198394 L751.466237,332.249394 C751.880786,331.884472 752.512671,331.924702 752.877593,332.33925 C753.242516,332.753798 753.202286,333.385684 752.787738,333.750606 L746.304186,339.458 L759.243,339.458 C759.795285,339.458 760.243,339.905715 760.243,340.458 C760.243,341.010285 759.795285,341.458 759.243,341.458 L746.305123,341.458 L752.787791,347.165441 C753.202313,347.530393 753.242498,348.162281 752.877546,348.576804 C752.512595,348.991326 751.880706,349.031511 751.466184,348.666559 L743.570299,341.714895 C743.245928,341.427864 743.046434,341.027968 743.010004,340.599997 L743.010004,340.599997 Z" id="arrow-left"></path>
        </g>
    </g>
</svg>