<?xml version="1.0" encoding="UTF-8"?>
<svg width="21px" height="21px" viewBox="0 0 21 21" version="1.1" xmlns="http://www.w3.org/2000/svg" xmlns:xlink="http://www.w3.org/1999/xlink">
    <!-- Generator: Sketch 55.2 (78181) - https://sketchapp.com -->
    <title>linkedin</title>
    <desc>Created with Sketch.</desc>
    <g id="Page-1" stroke="none" stroke-width="1" fill="none" fill-rule="evenodd">
        <g id="Artboard" transform="translate(-690.000000, -364.000000)" fill="#B81D8D" fill-rule="nonzero">
            <path d="M695,384.187 L690,384.187 L690,371.187 L695,371.187 L695,384.187 Z M704,375.187 C702.895431,375.187 702,376.082431 702,377.187 L702,384.187 L697,384.187 L697,371.187 L702,371.187 L702,372.672 C703.1163,371.725892 704.526842,371.19738 705.99,371.177 C708.952,371.177 711,373.377 711,377.532 L711,384.187 L706,384.187 L706,377.187 C706,376.082431 705.104569,375.187 704,375.187 Z M695,366.687 C694.999778,367.879673 694.157098,368.906105 692.987302,369.138581 C691.817506,369.371058 690.64639,368.744834 690.190149,367.642875 C689.733908,366.540916 690.119609,365.270127 691.111377,364.607658 C692.103145,363.945189 693.424764,364.075542 694.268,364.919 C694.736813,365.387936 695.000124,366.023911 695,366.687 Z" id="linkedin"></path>
        </g>
    </g>
</svg>