<?xml version="1.0" encoding="UTF-8"?>
<svg width="78px" height="78px" viewBox="0 0 78 78" version="1.1" xmlns="http://www.w3.org/2000/svg" xmlns:xlink="http://www.w3.org/1999/xlink">
    <!-- Generator: Sketch 55.2 (78181) - https://sketchapp.com -->
    <title>Combined Shape</title>
    <desc>Created with Sketch.</desc>
    <g id="Page-1" stroke="none" stroke-width="1" fill="none" fill-rule="evenodd">
        <g id="Artboard" transform="translate(-792.000000, -272.000000)" fill="#FFFFFF" fill-rule="nonzero">
            <path d="M819,296.995022 C819.001323,295.955472 819.539118,294.992478 820.421705,294.447199 C821.304291,293.90192 822.406108,293.851929 823.33579,294.315718 L850.344946,307.820886 C851.359329,308.328527 852,309.36559 852,310.499946 C852,311.634301 851.359329,312.671364 850.344455,313.17925 L823.334443,326.684846 C822.406108,327.147962 821.304291,327.097971 820.421705,326.552692 C819.539118,326.007413 819.001323,325.044419 819,324.004869 L819,296.995022 Z M822.258504,323.579561 L848.416591,310.499946 L822.258504,297.42033 L822.258504,323.579561 Z M831,350 C809.460895,350 792,332.539105 792,311 C792,289.460895 809.460895,272 831,272 C852.539105,272 870,289.460895 870,311 C870,332.539105 852.539105,350 831,350 Z M831,346.730291 C850.733295,346.730291 866.730291,330.733295 866.730291,311 C866.730291,291.266705 850.733295,275.269709 831,275.269709 C811.266705,275.269709 795.269709,291.266705 795.269709,311 C795.269709,330.733295 811.266705,346.730291 831,346.730291 Z" id="Combined-Shape"></path>
        </g>
    </g>
</svg>