<?xml version="1.0" encoding="UTF-8"?>
<svg width="20px" height="17px" viewBox="0 0 20 17" version="1.1" xmlns="http://www.w3.org/2000/svg" xmlns:xlink="http://www.w3.org/1999/xlink">
    <!-- Generator: Sketch 55.2 (78181) - https://sketchapp.com -->
    <title>vimeo</title>
    <desc>Created with Sketch.</desc>
    <g id="Page-1" stroke="none" stroke-width="1" fill="none" fill-rule="evenodd">
        <g id="Artboard" transform="translate(-782.000000, -367.000000)" fill="#B81D8D" fill-rule="nonzero">
            <path d="M782,371.544322 L782.776,372.562322 C782.776,372.562322 784.376,371.300322 784.912,371.931322 C785.448,372.562322 787.491,380.189322 788.169,381.597322 C788.763,382.831322 790.402,384.462322 792.2,383.297322 C793.998,382.132322 799.971,377.033322 801.041,371.009322 C802.111,364.985322 793.851,366.247322 792.976,371.494322 C795.162,370.182322 796.329,372.028322 795.211,374.118322 C794.093,376.208322 793.074,377.567322 792.539,377.567322 C792.004,377.567322 791.595,376.167322 790.985,373.729322 C790.353,371.204322 790.357,366.657322 787.731,367.171322 C785.255,367.657322 782,371.544322 782,371.544322 Z" id="vimeo"></path>
        </g>
    </g>
</svg>